<svg width="799" height="714" viewBox="0 0 799 714" fill="none" xmlns="http://www.w3.org/2000/svg">
<g id="human">
<g id="Person">
<path id="Vector" d="M428.922 197.941C469.534 197.941 502.458 165.018 502.458 124.405C502.458 83.7923 469.534 50.869 428.922 50.869C388.309 50.869 355.385 83.7923 355.385 124.405C355.385 165.018 388.309 197.941 428.922 197.941Z" fill="#FCE6C5"/>
<path id="Vector_2" d="M516.92 648.636C516.92 648.636 512.16 650.266 504.42 652.576C487.31 657.706 455.65 666.216 428.82 667.916C405.72 669.396 386.2 665.836 382.63 650.766C381.1 644.286 383.27 638.956 388 634.576C402.12 621.486 439 616.796 468.25 615.186C476.51 614.736 484.15 614.526 490.51 614.446C501.31 614.306 508.39 614.526 508.39 614.526L508.56 615.186L516.92 648.636Z" fill="#FCE6C5"/>
<path id="Vector_3" d="M436.99 696.586C418.61 719.346 342.73 671.666 316.19 653.886C310.41 650.016 306.97 647.566 306.97 647.566L331.25 615.186L338.94 604.936C338.94 604.936 345.82 608.586 355.99 614.526C356.36 614.746 356.73 614.966 357.11 615.186C365.88 620.336 376.89 627.066 388 634.576C403.33 644.946 418.83 656.776 428.82 667.916C438.59 678.806 443.08 689.036 436.99 696.586Z" fill="#FCE6C5"/>
<path id="Vector_4" d="M373.564 152C373.564 152 387.427 263.769 366.099 276.314C344.771 288.859 493 290 493 290C493 290 459.942 193.058 474.871 163.405L373.564 152Z" fill="#FCE6C5"/>
<path id="Vector_5" d="M601.57 290.656L589.25 346.756L563.2 465.446L562.42 471.946L553.43 547.196L547.45 597.186L543.44 630.766C519.06 643.296 501.39 651.946 501.39 651.946C501.39 651.946 499.87 644.326 497.42 634.576C480.31 639.706 448.65 648.216 421.82 649.916C431.59 660.806 436.08 671.036 429.99 678.586C411.61 701.346 335.73 653.666 309.19 635.886C308.572 640.143 308.338 644.447 308.49 648.746L288.18 633.126L290.19 597.186L293.58 536.376L297.84 460.116C296.497 456.851 295.371 453.5 294.47 450.086C288.25 427.966 280.7 383.796 274.91 346.756C270.25 316.946 266.75 291.756 266.01 286.396C265.91 285.696 265.86 285.336 265.86 285.336L378.29 235.656C386.28 254.186 423.59 259.756 423.59 259.756C454.5 257.626 478.73 241.326 478.73 241.326L601.57 290.656Z" fill="#171718"/>
<path id="Vector_6" d="M368.467 48.8467L354.717 43.3423C354.717 43.3423 383.466 11.6915 423.465 14.4438L412.215 2.05862C412.215 2.05862 439.714 -8.95024 464.713 19.9482C477.854 35.1394 493.059 52.996 502.537 73.1112H517.262L511.117 86.643L532.626 100.175L510.549 97.7442C511.864 105.154 512.066 112.719 511.148 120.189C510.201 127.661 506.388 134.473 500.513 139.187C500.513 139.187 483.462 103.891 483.462 98.3869V112.148C483.462 112.148 469.712 99.7631 469.712 91.5064L462.213 101.139L458.463 86.0019L412.215 101.139L419.714 88.7543L390.966 92.8826L402.215 77.7452C402.215 77.7452 369.717 95.6347 368.467 110.772C367.217 125.909 357.704 140.253 357.704 140.253C357.704 140.253 332.218 69.4885 368.467 48.8467Z" fill="#04021E"/>
<path id="Vector_7" d="M681.5 548.566C674.01 556.686 655.45 568.916 632.95 582.156C624.58 587.076 615.67 592.146 606.58 597.186C584.89 609.216 562.18 621.136 543.44 630.766C519.06 643.296 501.39 651.946 501.39 651.946C501.39 651.946 499.87 644.326 497.42 634.576C494.14 621.526 489.2 604.656 484.05 597.186C483.87 596.926 483.69 596.686 483.51 596.446C482.01 594.476 480.5 593.326 479.01 593.326L553.43 547.196L585.59 527.256L562.42 471.946L533.36 402.566L550.9 346.756L568.53 290.656H601.57C601.57 290.656 612.51 314.536 626.5 347.836C628.59 352.816 630.75 358.006 632.95 363.366C661.73 433.366 697.61 531.116 681.5 548.566Z" fill="#171718"/>
<path id="Vector_8" d="M348.99 596.526C346.276 596.516 343.567 596.736 340.89 597.186C317.9 601.136 311.12 621.946 309.19 635.886C308.572 640.143 308.338 644.447 308.49 648.746L288.18 633.126L280.78 627.436C262.97 621.226 247.1 610.196 233.34 597.186C221.403 585.7 210.695 573.001 201.39 559.296C192.122 545.788 183.86 531.616 176.67 516.896C174.664 512.788 173.586 508.29 173.512 503.719C173.437 499.148 174.369 494.617 176.24 490.446L201.39 434.396L238.15 352.476C238.42 350.526 238.717 348.619 239.04 346.756C246.33 304.956 265.86 286.396 265.86 286.396H280.78L290.76 346.756L303.16 421.746L294.47 450.086L274.39 515.536L293.58 536.376L348.99 596.526Z" fill="#171718"/>
<path id="Vector_9" d="M365.877 421.806L378.631 436.687C383.37 435.783 388.319 434.721 393.416 433.529L389.752 421.806L398.71 432.256C452.707 418.976 519.637 393.155 519.637 393.155C519.637 393.155 447.379 398.453 393.428 386.666C369.558 381.451 344.998 393.284 335.202 415.669C329.508 428.679 330.403 439.952 350.596 439.952C357.419 439.835 364.223 439.195 370.949 438.037L365.877 421.806Z" fill="#F80808"/>
</g>
<g id="clock">
<path id="Vector_10" d="M226 244.44H0V246.844H226V244.44Z" fill="#3F3D56"/>
<path id="clock_2" d="M93.3404 244.113C137.159 244.113 172.681 208.591 172.681 164.773C172.681 120.954 137.159 85.4324 93.3404 85.4324C49.5219 85.4324 14 120.954 14 164.773C14 208.591 49.5219 244.113 93.3404 244.113Z" fill="#FB0F0F"/>
<path id="Vector_11" d="M56.1578 217.506L57.8578 219.206L69.7583 207.305L68.0582 205.605L56.1578 217.506Z" fill="#3F3D56"/>
<path id="Vector_12" d="M57.8578 108.702L56.1578 110.402L68.0582 122.302L69.7583 120.602L57.8578 108.702Z" fill="#3F3D56"/>
<path id="Vector_13" d="M34.4737 162.752V165.156H51.3035V162.752H34.4737Z" fill="#3F3D56"/>
<path id="Vector_14" d="M153.061 120.602L154.761 122.302L166.662 110.402L164.962 108.702L153.061 120.602Z" fill="#3F3D56"/>
<path id="Vector_15" d="M171.516 162.752V165.156H188.346V162.752H171.516Z" fill="#3F3D56"/>
<path id="Vector_16" d="M154.762 205.605L153.062 207.305L164.962 219.206L166.662 217.506L154.762 205.605Z" fill="#3F3D56"/>
<path id="Vector_17" d="M112.612 224.06H110.208V240.89H112.612V224.06Z" fill="#3F3D56"/>
<path id="Vector_18" d="M115.016 159.145C113.976 158.365 112.71 157.943 111.41 157.943C110.109 157.943 108.844 158.365 107.803 159.145C107.091 159.686 106.505 160.375 106.084 161.165C105.552 162.181 105.322 163.329 105.421 164.473C105.52 165.616 105.944 166.707 106.643 167.617C107.343 168.527 108.288 169.218 109.368 169.608C110.447 169.998 111.616 170.07 112.735 169.817C113.855 169.564 114.878 168.996 115.685 168.179C116.492 167.363 117.048 166.333 117.288 165.211C117.528 164.088 117.441 162.921 117.039 161.846C116.636 160.771 115.934 159.834 115.016 159.145H115.016ZM111.41 167.56C110.454 167.557 109.539 167.176 108.863 166.501C108.187 165.825 107.806 164.909 107.803 163.954C107.808 163.224 108.03 162.513 108.441 161.91C108.793 161.4 109.271 160.989 109.828 160.718C110.385 160.447 111.003 160.324 111.622 160.361C112.241 160.398 112.84 160.595 113.361 160.931C113.881 161.267 114.306 161.732 114.595 162.281C114.883 162.83 115.025 163.444 115.007 164.063C114.988 164.683 114.811 165.288 114.49 165.818C114.17 166.349 113.718 166.788 113.179 167.094C112.639 167.399 112.03 167.559 111.41 167.56V167.56Z" fill="#3F3D56"/>
<path id="Vector_19" d="M112.612 87.0175H110.208V103.847H112.612V87.0175Z" fill="#3F3D56"/>
<path id="Vector_20" d="M122.229 59.3686H100.591V81.0069H122.229V59.3686Z" fill="#3F3D56"/>
<path id="Vector_21" d="M111.41 62.975C127.344 62.975 140.261 58.4002 140.261 52.7569C140.261 47.1136 127.344 42.5388 111.41 42.5388C95.4759 42.5388 82.5588 47.1136 82.5588 52.7569C82.5588 58.4002 95.4759 62.975 111.41 62.975Z" fill="#3F3D56"/>
<path id="clock-hand" d="M115.016 118.273H107.803V159.145H115.016V118.273Z" fill="#3F3D56"/>
<path id="clock2" d="M114.728 76.6852C107.545 75.7716 100.274 75.7716 93.0901 76.6852C77.0857 78.7866 62.02 85.4351 49.6806 95.8418C37.3413 106.249 28.2464 119.977 23.475 135.397C21.3049 142.425 20.0761 149.709 19.8205 157.059C19.7845 158.081 19.7604 159.115 19.7604 160.149C19.7827 182.46 28.6555 203.85 44.4317 219.627C60.2078 235.403 81.5985 244.276 103.909 244.298C105.7 244.298 107.492 244.238 109.259 244.13C113.407 243.869 117.53 243.299 121.593 242.423C140.995 238.25 158.298 227.356 170.446 211.664C182.595 195.971 188.807 176.49 187.986 156.662C187.165 136.834 179.363 117.933 165.958 103.299C152.554 88.6651 134.409 79.2388 114.728 76.6852H114.728ZM130.248 237.542H130.236C123.459 239.855 116.405 241.257 109.259 241.713C107.492 241.834 105.7 241.894 103.909 241.894C82.2373 241.867 61.4607 233.246 46.1363 217.922C30.812 202.598 22.1911 181.821 22.1646 160.149C22.1646 159.115 22.1886 158.081 22.2246 157.059C23.0511 135.939 32.0153 115.957 47.2408 101.296C62.4662 86.6353 82.7727 78.4323 103.909 78.4043C123.276 78.4053 142.013 85.2818 156.782 97.8085C171.552 110.335 181.394 127.698 184.557 146.805C187.719 165.911 183.995 185.52 174.049 202.137C164.104 218.755 148.581 231.301 130.248 237.542H130.248Z" fill="#151414"/>
</g>
<g id="laptop">
<path id="laptop_2" d="M627.695 428.757H461.252V425.326H385.78V428.757H218.651C215.665 428.757 212.801 429.943 210.69 432.054C208.579 434.166 207.392 437.029 207.392 440.015V667.927C207.392 670.913 208.578 673.776 210.69 675.888C212.801 677.999 215.665 679.185 218.651 679.185H627.695C630.68 679.185 633.544 677.999 635.656 675.888C637.767 673.776 638.953 670.913 638.953 667.927V440.015C638.953 438.537 638.662 437.073 638.096 435.707C637.53 434.341 636.701 433.1 635.656 432.054C634.61 431.009 633.369 430.179 632.003 429.614C630.637 429.048 629.173 428.757 627.695 428.757Z" fill="#6C6F71"/>
<path id="Vector_22" d="M663.65 684.386V690.456C663.654 692.122 663.345 693.774 662.74 695.326C662.472 696.018 662.147 696.687 661.77 697.326C660.578 699.327 658.887 700.983 656.862 702.133C654.838 703.283 652.549 703.887 650.22 703.886H203.67C201.342 703.887 199.053 703.283 197.028 702.133C195.003 700.983 193.312 699.327 192.12 697.326C191.743 696.687 191.419 696.018 191.15 695.326C190.546 693.774 190.237 692.122 190.24 690.456V684.386C190.24 682.622 190.587 680.876 191.262 679.246C191.936 677.616 192.926 676.136 194.173 674.889C195.42 673.641 196.901 672.652 198.53 671.977C200.16 671.303 201.906 670.956 203.67 670.956H229.41V668.126C229.41 668.052 229.425 667.98 229.453 667.912C229.481 667.844 229.522 667.782 229.574 667.73C229.626 667.678 229.688 667.636 229.756 667.608C229.824 667.58 229.897 667.566 229.97 667.566H243.4C243.474 667.566 243.547 667.58 243.615 667.608C243.683 667.636 243.745 667.678 243.797 667.73C243.849 667.782 243.89 667.844 243.918 667.912C243.946 667.98 243.96 668.052 243.96 668.126V670.956H252.35V668.126C252.35 668.052 252.365 667.98 252.393 667.912C252.421 667.844 252.462 667.782 252.514 667.73C252.566 667.678 252.628 667.636 252.696 667.608C252.764 667.58 252.837 667.566 252.91 667.566H266.34C266.414 667.566 266.487 667.58 266.555 667.608C266.623 667.636 266.684 667.678 266.736 667.73C266.789 667.782 266.83 667.844 266.858 667.912C266.886 667.98 266.9 668.052 266.9 668.126V670.956H275.3V668.126C275.3 668.052 275.315 667.98 275.343 667.912C275.371 667.844 275.412 667.782 275.464 667.73C275.516 667.678 275.578 667.636 275.646 667.608C275.714 667.58 275.787 667.566 275.86 667.566H289.29C289.364 667.566 289.437 667.58 289.505 667.608C289.573 667.636 289.634 667.678 289.686 667.73C289.739 667.782 289.78 667.844 289.808 667.912C289.836 667.98 289.85 668.052 289.85 668.126V670.956H298.24V668.126C298.24 668.052 298.255 667.98 298.283 667.912C298.311 667.844 298.352 667.782 298.404 667.73C298.456 667.678 298.518 667.636 298.586 667.608C298.654 667.58 298.727 667.566 298.8 667.566H312.23C312.304 667.566 312.377 667.58 312.445 667.608C312.513 667.636 312.574 667.678 312.626 667.73C312.678 667.782 312.72 667.844 312.748 667.912C312.776 667.98 312.79 668.052 312.79 668.126V670.956H321.18V668.126C321.18 668.052 321.194 667.98 321.223 667.912C321.251 667.844 321.292 667.782 321.344 667.73C321.396 667.678 321.458 667.636 321.526 667.608C321.594 667.58 321.667 667.566 321.74 667.566H335.17C335.244 667.566 335.317 667.58 335.385 667.608C335.453 667.636 335.514 667.678 335.566 667.73C335.618 667.782 335.66 667.844 335.688 667.912C335.716 667.98 335.73 668.052 335.73 668.126V670.956H344.13V668.126C344.13 668.052 344.145 667.98 344.173 667.912C344.201 667.844 344.242 667.782 344.294 667.73C344.346 667.678 344.408 667.636 344.476 667.608C344.544 667.58 344.617 667.566 344.69 667.566H358.12C358.194 667.566 358.267 667.58 358.335 667.608C358.403 667.636 358.464 667.678 358.516 667.73C358.569 667.782 358.61 667.844 358.638 667.912C358.666 667.98 358.68 668.052 358.68 668.126V670.956H367.07V668.126C367.07 668.052 367.085 667.98 367.113 667.912C367.141 667.844 367.182 667.782 367.234 667.73C367.286 667.678 367.348 667.636 367.416 667.608C367.484 667.58 367.557 667.566 367.63 667.566H472.83C472.904 667.566 472.977 667.58 473.045 667.608C473.113 667.636 473.174 667.678 473.227 667.73C473.279 667.782 473.32 667.844 473.348 667.912C473.376 667.98 473.39 668.052 473.39 668.126V670.956H481.79V668.126C481.79 668.052 481.804 667.98 481.833 667.912C481.861 667.844 481.902 667.782 481.954 667.73C482.006 667.678 482.068 667.636 482.136 667.608C482.204 667.58 482.277 667.566 482.35 667.566H495.78C495.928 667.567 496.07 667.627 496.175 667.732C496.279 667.836 496.339 667.978 496.34 668.126V670.956H504.73V668.126C504.73 668.052 504.745 667.98 504.773 667.912C504.801 667.844 504.842 667.782 504.894 667.73C504.946 667.678 505.008 667.636 505.076 667.608C505.144 667.58 505.217 667.566 505.29 667.566H518.72C518.794 667.566 518.867 667.58 518.935 667.608C519.003 667.636 519.065 667.678 519.117 667.73C519.169 667.782 519.21 667.844 519.238 667.912C519.266 667.98 519.28 668.052 519.28 668.126V670.956H527.67V668.126C527.67 668.052 527.685 667.98 527.713 667.912C527.741 667.844 527.782 667.782 527.834 667.73C527.886 667.678 527.948 667.636 528.016 667.608C528.084 667.58 528.157 667.566 528.23 667.566H541.66C541.734 667.566 541.807 667.58 541.875 667.608C541.943 667.636 542.005 667.678 542.057 667.73C542.109 667.782 542.15 667.844 542.178 667.912C542.206 667.98 542.22 668.052 542.22 668.126V670.956H550.62V668.126C550.62 668.052 550.635 667.98 550.663 667.912C550.691 667.844 550.732 667.782 550.784 667.73C550.836 667.678 550.898 667.636 550.966 667.608C551.034 667.58 551.107 667.566 551.18 667.566H564.61C564.757 667.568 564.898 667.628 565.001 667.733C565.104 667.838 565.161 667.979 565.16 668.126V670.956H573.56V668.126C573.56 668.052 573.575 667.98 573.603 667.912C573.631 667.844 573.672 667.782 573.724 667.73C573.776 667.678 573.838 667.636 573.906 667.608C573.974 667.58 574.047 667.566 574.12 667.566H587.55C587.624 667.566 587.697 667.58 587.765 667.608C587.833 667.636 587.895 667.678 587.947 667.73C587.999 667.782 588.04 667.844 588.068 667.912C588.096 667.98 588.11 668.052 588.11 668.126V670.956H596.5V668.126C596.5 668.052 596.515 667.98 596.543 667.912C596.571 667.844 596.612 667.782 596.664 667.73C596.716 667.678 596.778 667.636 596.846 667.608C596.914 667.58 596.987 667.566 597.06 667.566H610.49C610.564 667.566 610.637 667.58 610.705 667.608C610.773 667.636 610.835 667.678 610.887 667.73C610.939 667.782 610.98 667.844 611.008 667.912C611.036 667.98 611.05 668.052 611.05 668.126V670.956H650.22C651.984 670.956 653.731 671.303 655.36 671.977C656.99 672.652 658.471 673.641 659.718 674.889C660.965 676.136 661.954 677.616 662.629 679.246C663.304 680.876 663.651 682.622 663.65 684.386Z" fill="#171718"/>
<path id="Vector_23" d="M423.5 533.326C437.307 533.326 448.5 522.133 448.5 508.326C448.5 494.519 437.307 483.326 423.5 483.326C409.693 483.326 398.5 494.519 398.5 508.326C398.5 522.133 409.693 533.326 423.5 533.326Z" stroke="#F50E0E" stroke-width="2" stroke-miterlimit="10"/>
<path id="Vector_24" d="M415.5 542.326C429.307 542.326 440.5 531.133 440.5 517.326C440.5 503.519 429.307 492.326 415.5 492.326C401.693 492.326 390.5 503.519 390.5 517.326C390.5 531.133 401.693 542.326 415.5 542.326Z" fill="#171718"/>
<path id="Vector_25" d="M793.5 695.326H60.5002V697.326H793.5V695.326Z" fill="#3F3D56"/>
</g>
<g id="leaf-right">
<path id="leaf right" d="M798.594 623.754C799.527 655.704 780.858 667.413 757.43 668.097C756.886 668.113 756.344 668.123 755.805 668.126C754.719 668.135 753.643 668.117 752.577 668.072C731.389 667.192 714.617 655.945 713.749 626.232C712.851 595.482 751.018 555.529 753.882 552.574L753.887 552.571C753.996 552.458 754.052 552.402 754.052 552.402C754.052 552.402 797.661 591.807 798.594 623.754Z" fill="#0CF03E"/>
<path id="leaf-right_2" d="M755.744 663.255L770.626 641.124L755.774 665.636L755.805 668.126C754.719 668.135 753.643 668.117 752.577 668.072L753.315 636.06L753.295 635.813L753.323 635.766L753.393 632.741L737.095 609.078L753.374 630.477L753.432 631.116L753.989 606.93L739.912 582.397L754.029 602.681L753.882 552.574L753.882 552.407L753.887 552.571L754.821 592.062L767.651 576.021L754.864 595.464L755.143 617.098L766.949 595.984L755.187 620.279L755.343 632.308L772.512 602.897L755.395 636.505L755.744 663.255Z" fill="#F71717"/>
<path id="Vector_26" d="M756.446 685.223H728.446V713.223H756.446V685.223Z" fill="#171718"/>
<path id="Vector_27" d="M739.45 663.223V697.223H773.45V663.223H739.45ZM771.97 695.743H740.92V664.703H771.97V695.743Z" fill="#3F3D56"/>
</g>
<g id="leaf-left">
<path id="leaf-left_2" d="M150.594 623.754C151.527 655.704 132.859 667.413 109.431 668.097C108.886 668.113 108.345 668.123 107.805 668.126C106.719 668.135 105.643 668.117 104.578 668.072C83.3892 667.192 66.6174 655.945 65.7496 626.232C64.8516 595.482 103.019 555.529 105.882 552.574L105.887 552.571C105.996 552.458 106.052 552.402 106.052 552.402C106.052 552.402 149.661 591.807 150.594 623.754Z" fill="#3DF20F"/>
<path id="leaf-left_3" d="M107.744 663.255L122.626 641.124L107.774 665.636L107.805 668.126C106.719 668.135 105.643 668.117 104.578 668.072L105.316 636.06L105.295 635.813L105.323 635.766L105.393 632.741L89.0955 609.078L105.374 630.477L105.432 631.116L105.989 606.93L91.9124 582.397L106.029 602.681L105.882 552.574L105.882 552.407L105.887 552.571L106.822 592.062L119.651 576.021L106.864 595.464L107.144 617.098L118.949 595.984L107.187 620.279L107.343 632.308L124.512 602.897L107.395 636.505L107.744 663.255Z" fill="#EF0909"/>
<path id="Vector_28" d="M91.45 663.223V697.223H125.45V663.223H91.45ZM123.97 695.743H92.92V664.703H123.97V695.743Z" fill="#3F3D56"/>
<path id="Vector_29" d="M108.446 685.223H80.446V713.223H108.446V685.223Z" fill="#171718"/>
</g>
</g>
</svg>
