<svg width="1458" height="1080" viewBox="0 0 1458 1080" fill="none" xmlns="http://www.w3.org/2000/svg">
<g filter="url(#filter0_d)">
<path d="M218.657 1106.57C140.167 1003.77 -12.3644 678.01 5.43146 197.357C65.3298 8.16371 1267.06 -117.965 1823 -39.1346C1644.68 531.587 1235.74 1658.81 1026.53 1601.92C765.012 1530.82 775.864 1767.31 360.807 1805.66C28.7614 1836.34 0.367563 1557.98 27.6763 1414.97L218.657 1106.57Z" fill="url(#paint0_linear)"/>
</g>
<path d="M1237.45 868.223V902.223H1271.45V868.223H1237.45ZM1269.97 900.743H1238.92V869.703H1269.97V900.743Z" fill="#3F3D56"/>
<path d="M1254.45 890.223H1226.45V918.223H1254.45V890.223Z" fill="#171718"/>
<path d="M589.45 868.223V902.223H623.45V868.223H589.45ZM621.97 900.743H590.92V869.703H621.97V900.743Z" fill="#3F3D56"/>
<path d="M606.446 890.223H578.446V918.223H606.446V890.223Z" fill="#171718"/>
<path d="M648.594 828.754C649.527 860.704 630.859 872.413 607.431 873.097C606.886 873.113 606.345 873.123 605.805 873.126C604.719 873.135 603.643 873.117 602.578 873.072C581.389 872.192 564.617 860.945 563.75 831.232C562.852 800.482 601.019 760.529 603.882 757.574L603.887 757.571C603.996 757.458 604.052 757.402 604.052 757.402C604.052 757.402 647.661 796.807 648.594 828.754Z" fill="#3DF20F"/>
<path d="M605.744 868.255L620.626 846.124L605.774 870.636L605.805 873.126C604.719 873.135 603.643 873.117 602.578 873.072L603.316 841.06L603.295 840.813L603.323 840.766L603.393 837.741L587.095 814.078L603.374 835.477L603.432 836.116L603.989 811.93L589.912 787.397L604.029 807.681L603.882 757.574L603.882 757.407L603.887 757.571L604.822 797.062L617.651 781.021L604.864 800.464L605.144 822.098L616.949 800.984L605.187 825.279L605.343 837.308L622.512 807.897L605.395 841.505L605.744 868.255Z" fill="#EF0909"/>
<path d="M1296.59 828.754C1297.53 860.704 1278.86 872.413 1255.43 873.097C1254.89 873.113 1254.34 873.123 1253.81 873.126C1252.72 873.135 1251.64 873.117 1250.58 873.072C1229.39 872.192 1212.62 860.945 1211.75 831.232C1210.85 800.482 1249.02 760.529 1251.88 757.574L1251.89 757.571C1252 757.458 1252.05 757.402 1252.05 757.402C1252.05 757.402 1295.66 796.807 1296.59 828.754Z" fill="#0CF03E"/>
<path d="M1253.74 868.255L1268.63 846.124L1253.77 870.636L1253.81 873.126C1252.72 873.135 1251.64 873.117 1250.58 873.072L1251.32 841.06L1251.3 840.813L1251.32 840.766L1251.39 837.741L1235.1 814.078L1251.37 835.477L1251.43 836.116L1251.99 811.93L1237.91 787.397L1252.03 807.681L1251.88 757.574L1251.88 757.407L1251.89 757.571L1252.82 797.062L1265.65 781.021L1252.86 800.464L1253.14 822.098L1264.95 800.984L1253.19 825.279L1253.34 837.308L1270.51 807.897L1253.39 841.505L1253.74 868.255Z" fill="#F71717"/>
<path d="M926.922 402.941C967.534 402.941 1000.46 370.018 1000.46 329.405C1000.46 288.792 967.534 255.869 926.922 255.869C886.309 255.869 853.385 288.792 853.385 329.405C853.385 370.018 886.309 402.941 926.922 402.941Z" fill="#FCE6C5"/>
<path d="M1014.92 853.636C1014.92 853.636 1010.16 855.266 1002.42 857.576C985.31 862.706 953.65 871.216 926.82 872.916C903.72 874.396 884.2 870.836 880.63 855.766C879.1 849.286 881.27 843.956 886 839.576C900.12 826.486 937 821.796 966.25 820.186C974.51 819.736 982.15 819.526 988.51 819.446C999.31 819.306 1006.39 819.526 1006.39 819.526L1006.56 820.186L1014.92 853.636Z" fill="#FCE6C5"/>
<path d="M934.99 901.586C916.61 924.346 840.73 876.666 814.19 858.886C808.41 855.016 804.97 852.566 804.97 852.566L829.25 820.186L836.94 809.936C836.94 809.936 843.82 813.586 853.99 819.526C854.36 819.746 854.73 819.966 855.11 820.186C863.88 825.336 874.89 832.066 886 839.576C901.33 849.946 916.83 861.776 926.82 872.916C936.59 883.806 941.08 894.036 934.99 901.586Z" fill="#FCE6C5"/>
<path d="M871.564 357C871.564 357 885.427 468.769 864.099 481.314C842.771 493.859 991 495 991 495C991 495 957.942 398.058 972.871 368.405L871.564 357Z" fill="#FCE6C5"/>
<path d="M1099.57 495.656L1087.25 551.756L1061.2 670.446L1060.42 676.946L1051.43 752.196L1045.45 802.186L1041.44 835.766C1017.06 848.296 999.39 856.946 999.39 856.946C999.39 856.946 997.87 849.326 995.42 839.576C978.31 844.706 946.65 853.216 919.82 854.916C929.59 865.806 934.08 876.036 927.99 883.586C909.61 906.346 833.73 858.666 807.19 840.886C806.572 845.143 806.338 849.447 806.49 853.746L786.18 838.126L788.19 802.186L791.58 741.376L795.84 665.116C794.497 661.851 793.371 658.5 792.47 655.086C786.25 632.966 778.7 588.796 772.91 551.756C768.25 521.946 764.75 496.756 764.01 491.396C763.91 490.696 763.86 490.336 763.86 490.336L876.29 440.656C884.28 459.186 921.59 464.756 921.59 464.756C952.5 462.626 976.73 446.326 976.73 446.326L1099.57 495.656Z" fill="#171718"/>
<path d="M866.467 253.847L852.717 248.342C852.717 248.342 881.466 216.691 921.465 219.444L910.215 207.059C910.215 207.059 937.714 196.05 962.713 224.948C975.854 240.139 991.059 257.996 1000.54 278.111H1015.26L1009.12 291.643L1030.63 305.175L1008.55 302.744C1009.86 310.154 1010.07 317.719 1009.15 325.189C1008.2 332.661 1004.39 339.473 998.513 344.187C998.513 344.187 981.462 308.891 981.462 303.387V317.148C981.462 317.148 967.712 304.763 967.712 296.506L960.213 306.139L956.463 291.002L910.215 306.139L917.714 293.754L888.966 297.883L900.215 282.745C900.215 282.745 867.717 300.635 866.467 315.772C865.217 330.909 855.704 345.253 855.704 345.253C855.704 345.253 830.218 274.488 866.467 253.847Z" fill="#04021E"/>
<path d="M1179.5 753.566C1172.01 761.686 1153.45 773.916 1130.95 787.156C1122.58 792.076 1113.67 797.146 1104.58 802.186C1082.89 814.216 1060.18 826.136 1041.44 835.766C1017.06 848.296 999.39 856.946 999.39 856.946C999.39 856.946 997.87 849.326 995.42 839.576C992.14 826.526 987.2 809.656 982.05 802.186C981.87 801.926 981.69 801.686 981.51 801.446C980.01 799.476 978.5 798.326 977.01 798.326L1051.43 752.196L1083.59 732.256L1060.42 676.946L1031.36 607.566L1048.9 551.756L1066.53 495.656H1099.57C1099.57 495.656 1110.51 519.536 1124.5 552.836C1126.59 557.816 1128.75 563.006 1130.95 568.366C1159.73 638.366 1195.61 736.116 1179.5 753.566Z" fill="#171718"/>
<path d="M846.99 801.526C844.276 801.516 841.567 801.736 838.89 802.186C815.9 806.136 809.12 826.946 807.19 840.886C806.572 845.143 806.338 849.447 806.49 853.746L786.18 838.126L778.78 832.436C760.97 826.226 745.1 815.196 731.34 802.186C719.403 790.7 708.695 778.001 699.39 764.296C690.122 750.788 681.86 736.616 674.67 721.896C672.664 717.788 671.586 713.29 671.512 708.719C671.437 704.148 672.369 699.617 674.24 695.446L699.39 639.396L736.15 557.476C736.42 555.526 736.717 553.619 737.04 551.756C744.33 509.956 763.86 491.396 763.86 491.396H778.78L788.76 551.756L801.16 626.746L792.47 655.086L772.39 720.536L791.58 741.376L846.99 801.526Z" fill="#171718"/>
<path d="M863.877 626.806L876.631 641.687C881.37 640.783 886.319 639.721 891.416 638.529L887.752 626.806L896.71 637.256C950.707 623.976 1017.64 598.155 1017.64 598.155C1017.64 598.155 945.379 603.453 891.428 591.666C867.558 586.451 842.998 598.284 833.202 620.669C827.508 633.679 828.403 644.952 848.596 644.952C855.419 644.835 862.223 644.195 868.949 643.037L863.877 626.806Z" fill="#F80808"/>
<path d="M724 449.44H498V451.844H724V449.44Z" fill="#3F3D56"/>
<path d="M591.34 449.113C635.159 449.113 670.681 413.591 670.681 369.773C670.681 325.954 635.159 290.432 591.34 290.432C547.522 290.432 512 325.954 512 369.773C512 413.591 547.522 449.113 591.34 449.113Z" fill="#FB0F0F"/>
<path d="M554.158 422.506L555.858 424.206L567.758 412.305L566.058 410.605L554.158 422.506Z" fill="#3F3D56"/>
<path d="M555.858 313.702L554.158 315.402L566.058 327.302L567.758 325.602L555.858 313.702Z" fill="#3F3D56"/>
<path d="M532.474 367.752V370.156H549.303V367.752H532.474Z" fill="#3F3D56"/>
<path d="M651.061 325.602L652.761 327.302L664.662 315.402L662.962 313.702L651.061 325.602Z" fill="#3F3D56"/>
<path d="M669.516 367.752V370.156H686.346V367.752H669.516Z" fill="#3F3D56"/>
<path d="M652.762 410.605L651.062 412.305L662.962 424.206L664.662 422.506L652.762 410.605Z" fill="#3F3D56"/>
<path d="M610.612 429.06H608.208V445.89H610.612V429.06Z" fill="#3F3D56"/>
<path d="M613.016 364.145C611.976 363.365 610.71 362.943 609.41 362.943C608.109 362.943 606.844 363.365 605.803 364.145C605.091 364.686 604.505 365.375 604.084 366.165C603.552 367.181 603.322 368.329 603.421 369.473C603.52 370.616 603.944 371.707 604.643 372.617C605.343 373.527 606.288 374.218 607.368 374.608C608.447 374.998 609.616 375.07 610.735 374.817C611.855 374.564 612.878 373.996 613.685 373.179C614.492 372.363 615.048 371.333 615.288 370.211C615.528 369.088 615.441 367.921 615.039 366.846C614.636 365.771 613.934 364.834 613.016 364.145H613.016ZM609.41 372.56C608.454 372.557 607.539 372.176 606.863 371.501C606.187 370.825 605.806 369.909 605.803 368.954C605.808 368.224 606.03 367.513 606.441 366.91C606.793 366.4 607.271 365.989 607.828 365.718C608.385 365.447 609.003 365.324 609.622 365.361C610.241 365.398 610.84 365.595 611.361 365.931C611.881 366.267 612.306 366.732 612.595 367.281C612.883 367.83 613.025 368.444 613.007 369.063C612.988 369.683 612.811 370.288 612.49 370.818C612.17 371.349 611.718 371.788 611.179 372.094C610.639 372.399 610.03 372.559 609.41 372.56V372.56Z" fill="#3F3D56"/>
<path d="M610.612 292.018H608.208V308.847H610.612V292.018Z" fill="#3F3D56"/>
<path d="M620.229 264.369H598.591V286.007H620.229V264.369Z" fill="#3F3D56"/>
<path d="M609.41 267.975C625.344 267.975 638.261 263.4 638.261 257.757C638.261 252.114 625.344 247.539 609.41 247.539C593.476 247.539 580.559 252.114 580.559 257.757C580.559 263.4 593.476 267.975 609.41 267.975Z" fill="#3F3D56"/>
<path d="M612.728 281.685C605.545 280.772 598.274 280.772 591.09 281.685C575.086 283.787 560.02 290.435 547.681 300.842C535.341 311.249 526.246 324.977 521.475 340.397C519.305 347.425 518.076 354.709 517.82 362.059C517.784 363.081 517.76 364.115 517.76 365.149C517.783 387.46 526.656 408.85 542.432 424.627C558.208 440.403 579.598 449.276 601.909 449.298C603.7 449.298 605.492 449.238 607.259 449.13C611.407 448.869 615.53 448.299 619.593 447.423C638.995 443.25 656.298 432.356 668.446 416.664C680.595 400.971 686.807 381.49 685.986 361.662C685.165 341.834 677.363 322.933 663.958 308.299C650.554 293.665 632.409 284.239 612.728 281.685H612.728ZM628.248 442.542H628.236C621.459 444.855 614.405 446.257 607.259 446.713C605.492 446.834 603.7 446.894 601.909 446.894C580.237 446.867 559.461 438.246 544.136 422.922C528.812 407.598 520.191 386.821 520.165 365.149C520.165 364.115 520.189 363.081 520.225 362.059C521.051 340.939 530.015 320.957 545.241 306.296C560.466 291.635 580.773 283.432 601.909 283.404C621.276 283.405 640.013 290.282 654.782 302.808C669.552 315.335 679.394 332.698 682.557 351.805C685.719 370.911 681.995 390.52 672.049 407.137C662.104 423.755 646.581 436.301 628.248 442.542H628.248Z" fill="#151414"/>
<path d="M613.016 323.273H605.803V364.145H613.016V323.273Z" fill="#3F3D56"/>
<path d="M1125.69 633.757H959.252V630.326H883.78V633.757H716.651C713.665 633.757 710.801 634.943 708.69 637.054C706.579 639.166 705.392 642.029 705.392 645.015V872.927C705.392 875.913 706.578 878.776 708.69 880.888C710.801 882.999 713.665 884.185 716.651 884.185H1125.69C1128.68 884.185 1131.54 882.999 1133.66 880.888C1135.77 878.776 1136.95 875.913 1136.95 872.927V645.015C1136.95 643.537 1136.66 642.073 1136.1 640.707C1135.53 639.341 1134.7 638.1 1133.66 637.054C1132.61 636.009 1131.37 635.179 1130 634.614C1128.64 634.048 1127.17 633.757 1125.69 633.757Z" fill="#6C6F71"/>
<path d="M1161.65 889.386V895.456C1161.65 897.122 1161.35 898.774 1160.74 900.326C1160.47 901.018 1160.15 901.687 1159.77 902.326C1158.58 904.327 1156.89 905.983 1154.86 907.133C1152.84 908.283 1150.55 908.887 1148.22 908.886H701.67C699.342 908.887 697.053 908.283 695.028 907.133C693.003 905.983 691.312 904.327 690.12 902.326C689.743 901.687 689.419 901.018 689.15 900.326C688.546 898.774 688.237 897.122 688.24 895.456V889.386C688.24 887.622 688.587 885.876 689.262 884.246C689.936 882.616 690.926 881.136 692.173 879.889C693.42 878.641 694.901 877.652 696.53 876.977C698.16 876.303 699.906 875.956 701.67 875.956H727.41V873.126C727.41 873.052 727.425 872.98 727.453 872.912C727.481 872.844 727.522 872.782 727.574 872.73C727.626 872.678 727.688 872.636 727.756 872.608C727.824 872.58 727.897 872.566 727.97 872.566H741.4C741.474 872.566 741.547 872.58 741.615 872.608C741.683 872.636 741.745 872.678 741.797 872.73C741.849 872.782 741.89 872.844 741.918 872.912C741.946 872.98 741.96 873.052 741.96 873.126V875.956H750.35V873.126C750.35 873.052 750.365 872.98 750.393 872.912C750.421 872.844 750.462 872.782 750.514 872.73C750.566 872.678 750.628 872.636 750.696 872.608C750.764 872.58 750.837 872.566 750.91 872.566H764.34C764.414 872.566 764.487 872.58 764.555 872.608C764.623 872.636 764.684 872.678 764.736 872.73C764.789 872.782 764.83 872.844 764.858 872.912C764.886 872.98 764.9 873.052 764.9 873.126V875.956H773.3V873.126C773.3 873.052 773.315 872.98 773.343 872.912C773.371 872.844 773.412 872.782 773.464 872.73C773.516 872.678 773.578 872.636 773.646 872.608C773.714 872.58 773.787 872.566 773.86 872.566H787.29C787.364 872.566 787.437 872.58 787.505 872.608C787.573 872.636 787.634 872.678 787.686 872.73C787.739 872.782 787.78 872.844 787.808 872.912C787.836 872.98 787.85 873.052 787.85 873.126V875.956H796.24V873.126C796.24 873.052 796.255 872.98 796.283 872.912C796.311 872.844 796.352 872.782 796.404 872.73C796.456 872.678 796.518 872.636 796.586 872.608C796.654 872.58 796.727 872.566 796.8 872.566H810.23C810.304 872.566 810.377 872.58 810.445 872.608C810.513 872.636 810.574 872.678 810.626 872.73C810.678 872.782 810.72 872.844 810.748 872.912C810.776 872.98 810.79 873.052 810.79 873.126V875.956H819.18V873.126C819.18 873.052 819.194 872.98 819.223 872.912C819.251 872.844 819.292 872.782 819.344 872.73C819.396 872.678 819.458 872.636 819.526 872.608C819.594 872.58 819.667 872.566 819.74 872.566H833.17C833.244 872.566 833.317 872.58 833.385 872.608C833.453 872.636 833.514 872.678 833.566 872.73C833.618 872.782 833.66 872.844 833.688 872.912C833.716 872.98 833.73 873.052 833.73 873.126V875.956H842.13V873.126C842.13 873.052 842.145 872.98 842.173 872.912C842.201 872.844 842.242 872.782 842.294 872.73C842.346 872.678 842.408 872.636 842.476 872.608C842.544 872.58 842.617 872.566 842.69 872.566H856.12C856.194 872.566 856.267 872.58 856.335 872.608C856.403 872.636 856.464 872.678 856.516 872.73C856.569 872.782 856.61 872.844 856.638 872.912C856.666 872.98 856.68 873.052 856.68 873.126V875.956H865.07V873.126C865.07 873.052 865.085 872.98 865.113 872.912C865.141 872.844 865.182 872.782 865.234 872.73C865.286 872.678 865.348 872.636 865.416 872.608C865.484 872.58 865.557 872.566 865.63 872.566H970.83C970.904 872.566 970.977 872.58 971.045 872.608C971.113 872.636 971.174 872.678 971.227 872.73C971.279 872.782 971.32 872.844 971.348 872.912C971.376 872.98 971.39 873.052 971.39 873.126V875.956H979.79V873.126C979.79 873.052 979.804 872.98 979.833 872.912C979.861 872.844 979.902 872.782 979.954 872.73C980.006 872.678 980.068 872.636 980.136 872.608C980.204 872.58 980.277 872.566 980.35 872.566H993.78C993.928 872.567 994.07 872.627 994.175 872.732C994.279 872.836 994.339 872.978 994.34 873.126V875.956H1002.73V873.126C1002.73 873.052 1002.74 872.98 1002.77 872.912C1002.8 872.844 1002.84 872.782 1002.89 872.73C1002.95 872.678 1003.01 872.636 1003.08 872.608C1003.14 872.58 1003.22 872.566 1003.29 872.566H1016.72C1016.79 872.566 1016.87 872.58 1016.93 872.608C1017 872.636 1017.06 872.678 1017.12 872.73C1017.17 872.782 1017.21 872.844 1017.24 872.912C1017.27 872.98 1017.28 873.052 1017.28 873.126V875.956H1025.67V873.126C1025.67 873.052 1025.68 872.98 1025.71 872.912C1025.74 872.844 1025.78 872.782 1025.83 872.73C1025.89 872.678 1025.95 872.636 1026.02 872.608C1026.08 872.58 1026.16 872.566 1026.23 872.566H1039.66C1039.73 872.566 1039.81 872.58 1039.87 872.608C1039.94 872.636 1040 872.678 1040.06 872.73C1040.11 872.782 1040.15 872.844 1040.18 872.912C1040.21 872.98 1040.22 873.052 1040.22 873.126V875.956H1048.62V873.126C1048.62 873.052 1048.63 872.98 1048.66 872.912C1048.69 872.844 1048.73 872.782 1048.78 872.73C1048.84 872.678 1048.9 872.636 1048.97 872.608C1049.03 872.58 1049.11 872.566 1049.18 872.566H1062.61C1062.76 872.568 1062.9 872.628 1063 872.733C1063.1 872.838 1063.16 872.979 1063.16 873.126V875.956H1071.56V873.126C1071.56 873.052 1071.57 872.98 1071.6 872.912C1071.63 872.844 1071.67 872.782 1071.72 872.73C1071.78 872.678 1071.84 872.636 1071.91 872.608C1071.97 872.58 1072.05 872.566 1072.12 872.566H1085.55C1085.62 872.566 1085.7 872.58 1085.76 872.608C1085.83 872.636 1085.89 872.678 1085.95 872.73C1086 872.782 1086.04 872.844 1086.07 872.912C1086.1 872.98 1086.11 873.052 1086.11 873.126V875.956H1094.5V873.126C1094.5 873.052 1094.51 872.98 1094.54 872.912C1094.57 872.844 1094.61 872.782 1094.66 872.73C1094.72 872.678 1094.78 872.636 1094.85 872.608C1094.91 872.58 1094.99 872.566 1095.06 872.566H1108.49C1108.56 872.566 1108.64 872.58 1108.7 872.608C1108.77 872.636 1108.83 872.678 1108.89 872.73C1108.94 872.782 1108.98 872.844 1109.01 872.912C1109.04 872.98 1109.05 873.052 1109.05 873.126V875.956H1148.22C1149.98 875.956 1151.73 876.303 1153.36 876.977C1154.99 877.652 1156.47 878.641 1157.72 879.889C1158.96 881.136 1159.95 882.616 1160.63 884.246C1161.3 885.876 1161.65 887.622 1161.65 889.386Z" fill="#171718"/>
<path d="M921.5 738.326C935.307 738.326 946.5 727.133 946.5 713.326C946.5 699.519 935.307 688.326 921.5 688.326C907.693 688.326 896.5 699.519 896.5 713.326C896.5 727.133 907.693 738.326 921.5 738.326Z" stroke="#F50E0E" stroke-width="2" stroke-miterlimit="10"/>
<path d="M913.5 747.326C927.307 747.326 938.5 736.133 938.5 722.326C938.5 708.519 927.307 697.326 913.5 697.326C899.693 697.326 888.5 708.519 888.5 722.326C888.5 736.133 899.693 747.326 913.5 747.326Z" fill="#171718"/>
<path d="M1291.5 900.326H558.5V902.326H1291.5V900.326Z" fill="#3F3D56"/>
<defs>
<filter id="filter0_d" x="0" y="-63" width="1827" height="1879" filterUnits="userSpaceOnUse" color-interpolation-filters="sRGB">
<feFlood flood-opacity="0" result="BackgroundImageFix"/>
<feColorMatrix in="SourceAlpha" type="matrix" values="0 0 0 0 0 0 0 0 0 0 0 0 0 0 0 0 0 0 127 0"/>
<feOffset dy="4"/>
<feGaussianBlur stdDeviation="2"/>
<feColorMatrix type="matrix" values="0 0 0 0 0 0 0 0 0 0 0 0 0 0 0 0 0 0 0.25 0"/>
<feBlend mode="normal" in2="BackgroundImageFix" result="effect1_dropShadow"/>
<feBlend mode="normal" in="SourceGraphic" in2="effect1_dropShadow" result="shape"/>
</filter>
<linearGradient id="paint0_linear" x1="1093.8" y1="467.404" x2="-429.508" y2="1229.94" gradientUnits="userSpaceOnUse">
<stop stop-color="#FB0F0F"/>
<stop offset="0.201242" stop-color="#929090"/>
<stop offset="0.26633" stop-color="#DC5A92" stop-opacity="0.522465"/>
<stop offset="0.371479" stop-color="#D155E6" stop-opacity="0.549072"/>
<stop offset="1" stop-color="#501C93" stop-opacity="0"/>
</linearGradient>
</defs>
</svg>
