<svg width="1928" height="1088" viewBox="0 0 1928 1088" fill="none" xmlns="http://www.w3.org/2000/svg">
<g id="Picture">
<g id="Desktop - 1" clip-path="url(#clip0)" filter="url(#filter0_d)">
<rect width="1920" height="1080" transform="translate(4)" fill="white"/>
<g id="splash1" filter="url(#filter1_d)">
<path d="M684.657 1106.57C606.167 1003.77 453.636 678.01 471.431 197.357C531.33 8.16371 1733.06 -117.965 2289 -39.1346C2110.68 531.587 1701.74 1658.81 1492.53 1601.92C1231.01 1530.82 1241.86 1767.31 826.807 1805.66C494.761 1836.34 466.368 1557.98 493.676 1414.97L684.657 1106.57Z" fill="url(#paint0_linear)"/>
</g>
<g id="me1">
<path id="Vector" d="M1392.92 402.941C1433.53 402.941 1466.46 370.018 1466.46 329.405C1466.46 288.792 1433.53 255.869 1392.92 255.869C1352.31 255.869 1319.39 288.792 1319.39 329.405C1319.39 370.018 1352.31 402.941 1392.92 402.941Z" fill="#FCE6C5"/>
<path id="Vector_2" d="M1480.92 853.636C1480.92 853.636 1476.16 855.266 1468.42 857.576C1451.31 862.706 1419.65 871.216 1392.82 872.916C1369.72 874.396 1350.2 870.836 1346.63 855.766C1345.1 849.286 1347.27 843.956 1352 839.576C1366.12 826.486 1403 821.796 1432.25 820.186C1440.51 819.736 1448.15 819.526 1454.51 819.446C1465.31 819.306 1472.39 819.526 1472.39 819.526L1472.56 820.186L1480.92 853.636Z" fill="#FCE6C5"/>
<path id="Vector_3" d="M1400.99 901.586C1382.61 924.346 1306.73 876.666 1280.19 858.886C1274.41 855.016 1270.97 852.566 1270.97 852.566L1295.25 820.186L1302.94 809.936C1302.94 809.936 1309.82 813.586 1319.99 819.526C1320.36 819.746 1320.73 819.966 1321.11 820.186C1329.88 825.336 1340.89 832.066 1352 839.576C1367.33 849.946 1382.83 861.776 1392.82 872.916C1402.59 883.806 1407.08 894.036 1400.99 901.586Z" fill="#FCE6C5"/>
<path id="Vector_4" d="M1337.56 357C1337.56 357 1351.43 468.769 1330.1 481.314C1308.77 493.859 1457 495 1457 495C1457 495 1423.94 398.058 1438.87 368.405L1337.56 357Z" fill="#FCE6C5"/>
<path id="Vector_5" d="M1565.57 495.656L1553.25 551.756L1527.2 670.446L1526.42 676.946L1517.43 752.196L1511.45 802.186L1507.44 835.766C1483.06 848.296 1465.39 856.946 1465.39 856.946C1465.39 856.946 1463.87 849.326 1461.42 839.576C1444.31 844.706 1412.65 853.216 1385.82 854.916C1395.59 865.806 1400.08 876.036 1393.99 883.586C1375.61 906.346 1299.73 858.666 1273.19 840.886C1272.57 845.143 1272.34 849.447 1272.49 853.746L1252.18 838.126L1254.19 802.186L1257.58 741.376L1261.84 665.116C1260.5 661.851 1259.37 658.5 1258.47 655.086C1252.25 632.966 1244.7 588.796 1238.91 551.756C1234.25 521.946 1230.75 496.756 1230.01 491.396C1229.91 490.696 1229.86 490.336 1229.86 490.336L1342.29 440.656C1350.28 459.186 1387.59 464.756 1387.59 464.756C1418.5 462.626 1442.73 446.326 1442.73 446.326L1565.57 495.656Z" fill="#171718"/>
<path id="Vector_6" d="M1332.47 253.847L1318.72 248.342C1318.72 248.342 1347.47 216.691 1387.46 219.444L1376.21 207.059C1376.21 207.059 1403.71 196.05 1428.71 224.948C1441.85 240.139 1457.06 257.996 1466.54 278.111H1481.26L1475.12 291.643L1496.63 305.175L1474.55 302.744C1475.86 310.154 1476.07 317.719 1475.15 325.189C1474.2 332.661 1470.39 339.473 1464.51 344.187C1464.51 344.187 1447.46 308.891 1447.46 303.387V317.148C1447.46 317.148 1433.71 304.763 1433.71 296.506L1426.21 306.139L1422.46 291.002L1376.21 306.139L1383.71 293.754L1354.97 297.883L1366.22 282.745C1366.22 282.745 1333.72 300.635 1332.47 315.772C1331.22 330.909 1321.7 345.253 1321.7 345.253C1321.7 345.253 1296.22 274.488 1332.47 253.847Z" fill="#04021E"/>
<path id="Vector_7" d="M1645.5 753.566C1638.01 761.686 1619.45 773.916 1596.95 787.156C1588.58 792.076 1579.67 797.146 1570.58 802.186C1548.89 814.216 1526.18 826.136 1507.44 835.766C1483.06 848.296 1465.39 856.946 1465.39 856.946C1465.39 856.946 1463.87 849.326 1461.42 839.576C1458.14 826.526 1453.2 809.656 1448.05 802.186C1447.87 801.926 1447.69 801.686 1447.51 801.446C1446.01 799.476 1444.5 798.326 1443.01 798.326L1517.43 752.196L1549.59 732.256L1526.42 676.946L1497.36 607.566L1514.9 551.756L1532.53 495.656H1565.57C1565.57 495.656 1576.51 519.536 1590.5 552.836C1592.59 557.816 1594.75 563.006 1596.95 568.366C1625.73 638.366 1661.61 736.116 1645.5 753.566Z" fill="#171718"/>
<path id="Vector_8" d="M1312.99 801.526C1310.28 801.516 1307.57 801.736 1304.89 802.186C1281.9 806.136 1275.12 826.946 1273.19 840.886C1272.57 845.143 1272.34 849.447 1272.49 853.746L1252.18 838.126L1244.78 832.436C1226.97 826.226 1211.1 815.196 1197.34 802.186C1185.4 790.7 1174.7 778.001 1165.39 764.296C1156.12 750.788 1147.86 736.616 1140.67 721.896C1138.66 717.788 1137.59 713.29 1137.51 708.719C1137.44 704.148 1138.37 699.617 1140.24 695.446L1165.39 639.396L1202.15 557.476C1202.42 555.526 1202.72 553.619 1203.04 551.756C1210.33 509.956 1229.86 491.396 1229.86 491.396H1244.78L1254.76 551.756L1267.16 626.746L1258.47 655.086L1238.39 720.536L1257.58 741.376L1312.99 801.526Z" fill="#171718"/>
<path id="Vector_9" d="M1329.88 626.806L1342.63 641.687C1347.37 640.783 1352.32 639.721 1357.42 638.529L1353.75 626.806L1362.71 637.256C1416.71 623.976 1483.64 598.155 1483.64 598.155C1483.64 598.155 1411.38 603.453 1357.43 591.666C1333.56 586.451 1309 598.284 1299.2 620.669C1293.51 633.679 1294.4 644.952 1314.6 644.952C1321.42 644.835 1328.22 644.195 1334.95 643.037L1329.88 626.806Z" fill="#F80808"/>
</g>
<path id="Vector_10" d="M1757.5 900.326H1024.5V902.326H1757.5V900.326Z" fill="#3F3D56"/>
<g id="laptop">
<path id="laptop_2" d="M1591.69 633.757H1425.25V630.326H1349.78V633.757H1182.65C1179.66 633.757 1176.8 634.943 1174.69 637.054C1172.58 639.166 1171.39 642.029 1171.39 645.015V872.927C1171.39 875.913 1172.58 878.776 1174.69 880.888C1176.8 882.999 1179.66 884.185 1182.65 884.185H1591.69C1594.68 884.185 1597.54 882.999 1599.66 880.888C1601.77 878.776 1602.95 875.913 1602.95 872.927V645.015C1602.95 643.537 1602.66 642.073 1602.1 640.707C1601.53 639.341 1600.7 638.1 1599.66 637.054C1598.61 636.009 1597.37 635.179 1596 634.614C1594.64 634.048 1593.17 633.757 1591.69 633.757Z" fill="#6C6F71"/>
<path id="Vector_11" d="M1627.65 889.386V895.456C1627.65 897.122 1627.35 898.774 1626.74 900.326C1626.47 901.018 1626.15 901.687 1625.77 902.326C1624.58 904.327 1622.89 905.983 1620.86 907.133C1618.84 908.283 1616.55 908.887 1614.22 908.886H1167.67C1165.34 908.887 1163.05 908.283 1161.03 907.133C1159 905.983 1157.31 904.327 1156.12 902.326C1155.74 901.687 1155.42 901.018 1155.15 900.326C1154.55 898.774 1154.24 897.122 1154.24 895.456V889.386C1154.24 887.622 1154.59 885.876 1155.26 884.246C1155.94 882.616 1156.93 881.136 1158.17 879.889C1159.42 878.641 1160.9 877.652 1162.53 876.977C1164.16 876.303 1165.91 875.956 1167.67 875.956H1193.41V873.126C1193.41 873.052 1193.42 872.98 1193.45 872.912C1193.48 872.844 1193.52 872.782 1193.57 872.73C1193.63 872.678 1193.69 872.636 1193.76 872.608C1193.82 872.58 1193.9 872.566 1193.97 872.566H1207.4C1207.47 872.566 1207.55 872.58 1207.61 872.608C1207.68 872.636 1207.74 872.678 1207.8 872.73C1207.85 872.782 1207.89 872.844 1207.92 872.912C1207.95 872.98 1207.96 873.052 1207.96 873.126V875.956H1216.35V873.126C1216.35 873.052 1216.36 872.98 1216.39 872.912C1216.42 872.844 1216.46 872.782 1216.51 872.73C1216.57 872.678 1216.63 872.636 1216.7 872.608C1216.76 872.58 1216.84 872.566 1216.91 872.566H1230.34C1230.41 872.566 1230.49 872.58 1230.55 872.608C1230.62 872.636 1230.68 872.678 1230.74 872.73C1230.79 872.782 1230.83 872.844 1230.86 872.912C1230.89 872.98 1230.9 873.052 1230.9 873.126V875.956H1239.3V873.126C1239.3 873.052 1239.31 872.98 1239.34 872.912C1239.37 872.844 1239.41 872.782 1239.46 872.73C1239.52 872.678 1239.58 872.636 1239.65 872.608C1239.71 872.58 1239.79 872.566 1239.86 872.566H1253.29C1253.36 872.566 1253.44 872.58 1253.5 872.608C1253.57 872.636 1253.63 872.678 1253.69 872.73C1253.74 872.782 1253.78 872.844 1253.81 872.912C1253.84 872.98 1253.85 873.052 1253.85 873.126V875.956H1262.24V873.126C1262.24 873.052 1262.25 872.98 1262.28 872.912C1262.31 872.844 1262.35 872.782 1262.4 872.73C1262.46 872.678 1262.52 872.636 1262.59 872.608C1262.65 872.58 1262.73 872.566 1262.8 872.566H1276.23C1276.3 872.566 1276.38 872.58 1276.44 872.608C1276.51 872.636 1276.57 872.678 1276.63 872.73C1276.68 872.782 1276.72 872.844 1276.75 872.912C1276.78 872.98 1276.79 873.052 1276.79 873.126V875.956H1285.18V873.126C1285.18 873.052 1285.19 872.98 1285.22 872.912C1285.25 872.844 1285.29 872.782 1285.34 872.73C1285.4 872.678 1285.46 872.636 1285.53 872.608C1285.59 872.58 1285.67 872.566 1285.74 872.566H1299.17C1299.24 872.566 1299.32 872.58 1299.38 872.608C1299.45 872.636 1299.51 872.678 1299.57 872.73C1299.62 872.782 1299.66 872.844 1299.69 872.912C1299.72 872.98 1299.73 873.052 1299.73 873.126V875.956H1308.13V873.126C1308.13 873.052 1308.14 872.98 1308.17 872.912C1308.2 872.844 1308.24 872.782 1308.29 872.73C1308.35 872.678 1308.41 872.636 1308.48 872.608C1308.54 872.58 1308.62 872.566 1308.69 872.566H1322.12C1322.19 872.566 1322.27 872.58 1322.33 872.608C1322.4 872.636 1322.46 872.678 1322.52 872.73C1322.57 872.782 1322.61 872.844 1322.64 872.912C1322.67 872.98 1322.68 873.052 1322.68 873.126V875.956H1331.07V873.126C1331.07 873.052 1331.08 872.98 1331.11 872.912C1331.14 872.844 1331.18 872.782 1331.23 872.73C1331.29 872.678 1331.35 872.636 1331.42 872.608C1331.48 872.58 1331.56 872.566 1331.63 872.566H1436.83C1436.9 872.566 1436.98 872.58 1437.04 872.608C1437.11 872.636 1437.17 872.678 1437.23 872.73C1437.28 872.782 1437.32 872.844 1437.35 872.912C1437.38 872.98 1437.39 873.052 1437.39 873.126V875.956H1445.79V873.126C1445.79 873.052 1445.8 872.98 1445.83 872.912C1445.86 872.844 1445.9 872.782 1445.95 872.73C1446.01 872.678 1446.07 872.636 1446.14 872.608C1446.2 872.58 1446.28 872.566 1446.35 872.566H1459.78C1459.93 872.567 1460.07 872.627 1460.17 872.732C1460.28 872.836 1460.34 872.978 1460.34 873.126V875.956H1468.73V873.126C1468.73 873.052 1468.74 872.98 1468.77 872.912C1468.8 872.844 1468.84 872.782 1468.89 872.73C1468.95 872.678 1469.01 872.636 1469.08 872.608C1469.14 872.58 1469.22 872.566 1469.29 872.566H1482.72C1482.79 872.566 1482.87 872.58 1482.93 872.608C1483 872.636 1483.06 872.678 1483.12 872.73C1483.17 872.782 1483.21 872.844 1483.24 872.912C1483.27 872.98 1483.28 873.052 1483.28 873.126V875.956H1491.67V873.126C1491.67 873.052 1491.68 872.98 1491.71 872.912C1491.74 872.844 1491.78 872.782 1491.83 872.73C1491.89 872.678 1491.95 872.636 1492.02 872.608C1492.08 872.58 1492.16 872.566 1492.23 872.566H1505.66C1505.73 872.566 1505.81 872.58 1505.87 872.608C1505.94 872.636 1506 872.678 1506.06 872.73C1506.11 872.782 1506.15 872.844 1506.18 872.912C1506.21 872.98 1506.22 873.052 1506.22 873.126V875.956H1514.62V873.126C1514.62 873.052 1514.63 872.98 1514.66 872.912C1514.69 872.844 1514.73 872.782 1514.78 872.73C1514.84 872.678 1514.9 872.636 1514.97 872.608C1515.03 872.58 1515.11 872.566 1515.18 872.566H1528.61C1528.76 872.568 1528.9 872.628 1529 872.733C1529.1 872.838 1529.16 872.979 1529.16 873.126V875.956H1537.56V873.126C1537.56 873.052 1537.57 872.98 1537.6 872.912C1537.63 872.844 1537.67 872.782 1537.72 872.73C1537.78 872.678 1537.84 872.636 1537.91 872.608C1537.97 872.58 1538.05 872.566 1538.12 872.566H1551.55C1551.62 872.566 1551.7 872.58 1551.76 872.608C1551.83 872.636 1551.89 872.678 1551.95 872.73C1552 872.782 1552.04 872.844 1552.07 872.912C1552.1 872.98 1552.11 873.052 1552.11 873.126V875.956H1560.5V873.126C1560.5 873.052 1560.51 872.98 1560.54 872.912C1560.57 872.844 1560.61 872.782 1560.66 872.73C1560.72 872.678 1560.78 872.636 1560.85 872.608C1560.91 872.58 1560.99 872.566 1561.06 872.566H1574.49C1574.56 872.566 1574.64 872.58 1574.7 872.608C1574.77 872.636 1574.83 872.678 1574.89 872.73C1574.94 872.782 1574.98 872.844 1575.01 872.912C1575.04 872.98 1575.05 873.052 1575.05 873.126V875.956H1614.22C1615.98 875.956 1617.73 876.303 1619.36 876.977C1620.99 877.652 1622.47 878.641 1623.72 879.889C1624.96 881.136 1625.95 882.616 1626.63 884.246C1627.3 885.876 1627.65 887.622 1627.65 889.386Z" fill="#171718"/>
<path id="Vector_12" d="M1387.5 738.326C1401.31 738.326 1412.5 727.133 1412.5 713.326C1412.5 699.519 1401.31 688.326 1387.5 688.326C1373.69 688.326 1362.5 699.519 1362.5 713.326C1362.5 727.133 1373.69 738.326 1387.5 738.326Z" stroke="#F50E0E" stroke-width="2" stroke-miterlimit="10"/>
<path id="Vector_13" d="M1379.5 747.326C1393.31 747.326 1404.5 736.133 1404.5 722.326C1404.5 708.519 1393.31 697.326 1379.5 697.326C1365.69 697.326 1354.5 708.519 1354.5 722.326C1354.5 736.133 1365.69 747.326 1379.5 747.326Z" fill="#171718"/>
</g>
<path id="Vector_14" d="M1072.45 890.223H1044.45V918.223H1072.45V890.223Z" fill="#171718"/>
<path id="Vector_15" d="M1055.45 868.223V902.223H1089.45V868.223H1055.45ZM1087.97 900.743H1056.92V869.703H1087.97V900.743Z" fill="#3F3D56"/>
<path id="Vector_16" d="M1720.45 890.223H1692.45V918.223H1720.45V890.223Z" fill="#171718"/>
<path id="Vector_17" d="M1703.45 868.223V902.223H1737.45V868.223H1703.45ZM1735.97 900.743H1704.92V869.703H1735.97V900.743Z" fill="#3F3D56"/>
<g id="clock">
<path id="Vector_18" d="M1190 449.44H964V451.844H1190V449.44Z" fill="#3F3D56"/>
<path id="clock_2" d="M1057.34 449.113C1101.16 449.113 1136.68 413.591 1136.68 369.773C1136.68 325.954 1101.16 290.432 1057.34 290.432C1013.52 290.432 978 325.954 978 369.773C978 413.591 1013.52 449.113 1057.34 449.113Z" fill="#FB0F0F"/>
<path id="Vector_19" d="M1020.16 422.506L1021.86 424.206L1033.76 412.305L1032.06 410.605L1020.16 422.506Z" fill="#3F3D56"/>
<path id="Vector_20" d="M1021.86 313.702L1020.16 315.402L1032.06 327.302L1033.76 325.602L1021.86 313.702Z" fill="#3F3D56"/>
<path id="Vector_21" d="M998.474 367.752V370.156H1015.3V367.752H998.474Z" fill="#3F3D56"/>
<path id="Vector_22" d="M1117.06 325.602L1118.76 327.302L1130.66 315.402L1128.96 313.702L1117.06 325.602Z" fill="#3F3D56"/>
<path id="Vector_23" d="M1135.52 367.752V370.156H1152.35V367.752H1135.52Z" fill="#3F3D56"/>
<path id="Vector_24" d="M1118.76 410.605L1117.06 412.305L1128.96 424.206L1130.66 422.506L1118.76 410.605Z" fill="#3F3D56"/>
<path id="Vector_25" d="M1076.61 429.06H1074.21V445.89H1076.61V429.06Z" fill="#3F3D56"/>
<path id="Vector_26" d="M1079.02 364.145C1077.98 363.365 1076.71 362.943 1075.41 362.943C1074.11 362.943 1072.84 363.365 1071.8 364.145C1071.09 364.686 1070.5 365.375 1070.08 366.165C1069.55 367.181 1069.32 368.329 1069.42 369.473C1069.52 370.616 1069.94 371.707 1070.64 372.617C1071.34 373.527 1072.29 374.218 1073.37 374.608C1074.45 374.998 1075.62 375.07 1076.74 374.817C1077.85 374.564 1078.88 373.996 1079.68 373.179C1080.49 372.363 1081.05 371.333 1081.29 370.211C1081.53 369.088 1081.44 367.921 1081.04 366.846C1080.64 365.771 1079.93 364.834 1079.02 364.145H1079.02ZM1075.41 372.56C1074.45 372.557 1073.54 372.176 1072.86 371.501C1072.19 370.825 1071.81 369.909 1071.8 368.954C1071.81 368.224 1072.03 367.513 1072.44 366.91C1072.79 366.4 1073.27 365.989 1073.83 365.718C1074.39 365.447 1075 365.324 1075.62 365.361C1076.24 365.398 1076.84 365.595 1077.36 365.931C1077.88 366.267 1078.31 366.732 1078.59 367.281C1078.88 367.83 1079.03 368.444 1079.01 369.063C1078.99 369.683 1078.81 370.288 1078.49 370.818C1078.17 371.349 1077.72 371.788 1077.18 372.094C1076.64 372.399 1076.03 372.559 1075.41 372.56V372.56Z" fill="#3F3D56"/>
<path id="Vector_27" d="M1086.23 264.369H1064.59V286.007H1086.23V264.369Z" fill="#3F3D56"/>
<path id="Vector_28" d="M1075.41 267.975C1091.34 267.975 1104.26 263.4 1104.26 257.757C1104.26 252.114 1091.34 247.539 1075.41 247.539C1059.48 247.539 1046.56 252.114 1046.56 257.757C1046.56 263.4 1059.48 267.975 1075.41 267.975Z" fill="#3F3D56"/>
<path id="clock-hand" d="M1079.02 323.273H1071.8V364.145H1079.02V323.273Z" fill="#3F3D56"/>
<path id="Vector_29" d="M1076.61 292.018H1074.21V308.847H1076.61V292.018Z" fill="#3F3D56"/>
<path id="clock2" d="M1078.73 281.685C1071.54 280.772 1064.27 280.772 1057.09 281.685C1041.09 283.787 1026.02 290.435 1013.68 300.842C1001.34 311.249 992.246 324.977 987.475 340.397C985.305 347.425 984.076 354.709 983.82 362.059C983.784 363.081 983.76 364.115 983.76 365.149C983.783 387.46 992.656 408.85 1008.43 424.627C1024.21 440.403 1045.6 449.276 1067.91 449.298C1069.7 449.298 1071.49 449.238 1073.26 449.13C1077.41 448.869 1081.53 448.299 1085.59 447.423C1104.99 443.25 1122.3 432.356 1134.45 416.664C1146.6 400.971 1152.81 381.49 1151.99 361.662C1151.16 341.834 1143.36 322.933 1129.96 308.299C1116.55 293.665 1098.41 284.239 1078.73 281.685H1078.73ZM1094.25 442.542H1094.24C1087.46 444.855 1080.4 446.257 1073.26 446.713C1071.49 446.834 1069.7 446.894 1067.91 446.894C1046.24 446.867 1025.46 438.246 1010.14 422.922C994.812 407.598 986.191 386.821 986.165 365.149C986.165 364.115 986.189 363.081 986.225 362.059C987.051 340.939 996.015 320.957 1011.24 306.296C1026.47 291.635 1046.77 283.432 1067.91 283.404C1087.28 283.405 1106.01 290.282 1120.78 302.808C1135.55 315.335 1145.39 332.698 1148.56 351.805C1151.72 370.911 1148 390.52 1138.05 407.137C1128.1 423.755 1112.58 436.301 1094.25 442.542H1094.25Z" fill="#151414"/>
</g>
<g id="plant-left">
<path id="leaf left" d="M1114.59 828.754C1115.53 860.704 1096.86 872.413 1073.43 873.097C1072.89 873.113 1072.34 873.123 1071.81 873.126C1070.72 873.135 1069.64 873.117 1068.58 873.072C1047.39 872.192 1030.62 860.945 1029.75 831.232C1028.85 800.482 1067.02 760.529 1069.88 757.574L1069.89 757.571C1070 757.458 1070.05 757.402 1070.05 757.402C1070.05 757.402 1113.66 796.807 1114.59 828.754Z" fill="#3DF20F"/>
<path id="Vector_30" d="M1071.74 868.255L1086.63 846.124L1071.77 870.636L1071.81 873.126C1070.72 873.135 1069.64 873.117 1068.58 873.072L1069.32 841.06L1069.3 840.813L1069.32 840.766L1069.39 837.741L1053.1 814.078L1069.37 835.477L1069.43 836.116L1069.99 811.93L1055.91 787.397L1070.03 807.681L1069.88 757.574L1069.88 757.407L1069.89 757.571L1070.82 797.062L1083.65 781.021L1070.86 800.464L1071.14 822.098L1082.95 800.984L1071.19 825.279L1071.34 837.308L1088.51 807.897L1071.4 841.505L1071.74 868.255Z" fill="#EF0909"/>
</g>
<g id="plant-right">
<path id="leaf right" d="M1762.59 828.754C1763.53 860.704 1744.86 872.413 1721.43 873.097C1720.89 873.113 1720.34 873.123 1719.81 873.126C1718.72 873.135 1717.64 873.117 1716.58 873.072C1695.39 872.192 1678.62 860.945 1677.75 831.232C1676.85 800.482 1715.02 760.529 1717.88 757.574L1717.89 757.571C1718 757.458 1718.05 757.402 1718.05 757.402C1718.05 757.402 1761.66 796.807 1762.59 828.754Z" fill="#0CF03E"/>
<path id="Vector_31" d="M1719.74 868.255L1734.63 846.124L1719.77 870.636L1719.81 873.126C1718.72 873.135 1717.64 873.117 1716.58 873.072L1717.32 841.06L1717.3 840.813L1717.32 840.766L1717.39 837.741L1701.1 814.078L1717.37 835.477L1717.43 836.116L1717.99 811.93L1703.91 787.397L1718.03 807.681L1717.88 757.574L1717.88 757.407L1717.89 757.571L1718.82 797.062L1731.65 781.021L1718.86 800.464L1719.14 822.098L1730.95 800.984L1719.19 825.279L1719.34 837.308L1736.51 807.897L1719.39 841.505L1719.74 868.255Z" fill="#F71717"/>
</g>
<g id="Frame 1">
<rect width="1920" height="114" transform="translate(4 966)" fill="#F20FB3"/>
</g>
</g>
</g>
<defs>
<filter id="filter0_d" x="0" y="0" width="1928" height="1088" filterUnits="userSpaceOnUse" color-interpolation-filters="sRGB">
<feFlood flood-opacity="0" result="BackgroundImageFix"/>
<feColorMatrix in="SourceAlpha" type="matrix" values="0 0 0 0 0 0 0 0 0 0 0 0 0 0 0 0 0 0 127 0"/>
<feOffset dy="4"/>
<feGaussianBlur stdDeviation="2"/>
<feColorMatrix type="matrix" values="0 0 0 0 0 0 0 0 0 0 0 0 0 0 0 0 0 0 0.25 0"/>
<feBlend mode="normal" in2="BackgroundImageFix" result="effect1_dropShadow"/>
<feBlend mode="normal" in="SourceGraphic" in2="effect1_dropShadow" result="shape"/>
</filter>
<filter id="filter1_d" x="466" y="-63" width="1827" height="1879" filterUnits="userSpaceOnUse" color-interpolation-filters="sRGB">
<feFlood flood-opacity="0" result="BackgroundImageFix"/>
<feColorMatrix in="SourceAlpha" type="matrix" values="0 0 0 0 0 0 0 0 0 0 0 0 0 0 0 0 0 0 127 0"/>
<feOffset dy="4"/>
<feGaussianBlur stdDeviation="2"/>
<feColorMatrix type="matrix" values="0 0 0 0 0 0 0 0 0 0 0 0 0 0 0 0 0 0 0.25 0"/>
<feBlend mode="normal" in2="BackgroundImageFix" result="effect1_dropShadow"/>
<feBlend mode="normal" in="SourceGraphic" in2="effect1_dropShadow" result="shape"/>
</filter>
<linearGradient id="paint0_linear" x1="1559.8" y1="467.404" x2="36.4922" y2="1229.94" gradientUnits="userSpaceOnUse">
<stop stop-color="#FB0F0F"/>
<stop offset="0.201242" stop-color="#929090"/>
<stop offset="0.26633" stop-color="#DC5A92" stop-opacity="0.522465"/>
<stop offset="0.371479" stop-color="#D155E6" stop-opacity="0.549072"/>
<stop offset="1" stop-color="#501C93" stop-opacity="0"/>
</linearGradient>
<clipPath id="clip0">
<rect width="1920" height="1080" fill="white" transform="translate(4)"/>
</clipPath>
</defs>
</svg>
